<svg xmlns="http://www.w3.org/2000/svg" xmlns:xlink="http://www.w3.org/1999/xlink" viewBox="0 0 4096 4096"><defs><style>.cls-1,.cls-17,.cls-22{fill:none;}.cls-2{clip-path:url(#clip-path);}.cls-3{fill:#d95cba;}.cls-4{fill:#c96;}.cls-10,.cls-12,.cls-13,.cls-14,.cls-15,.cls-16,.cls-17,.cls-18,.cls-20,.cls-21,.cls-22,.cls-4,.cls-6,.cls-7,.cls-8,.cls-9{fill-rule:evenodd;}.cls-5{fill:#1d1d1b;}.cls-6{fill:#bad95c;}.cls-7{fill:#363026;}.cls-10,.cls-11,.cls-12,.cls-13,.cls-14,.cls-15,.cls-16,.cls-20,.cls-21,.cls-7,.cls-8,.cls-9{stroke:#1d1d1b;}.cls-10,.cls-11,.cls-12,.cls-13,.cls-14,.cls-15,.cls-16,.cls-17,.cls-20,.cls-21,.cls-22,.cls-7,.cls-8,.cls-9{stroke-miterlimit:10;}.cls-17,.cls-7,.cls-8{stroke-width:32px;}.cls-20,.cls-21,.cls-8{fill:#eee;}.cls-13,.cls-9{stroke-width:16px;}.cls-9{fill:url(#Degradado_sin_nombre_377);}.cls-10,.cls-11,.cls-12,.cls-14,.cls-15,.cls-16{stroke-width:4px;}.cls-10{fill:url(#Nueva_muestra_de_degradado_5);}.cls-11{fill:url(#Degradado_sin_nombre_255);}.cls-12{fill:url(#Degradado_sin_nombre_255-2);}.cls-13{fill:url(#Degradado_sin_nombre_378);}.cls-14{fill:url(#Nueva_muestra_de_degradado_5-2);}.cls-15{fill:url(#Degradado_sin_nombre_255-3);}.cls-16{fill:url(#Degradado_sin_nombre_255-4);}.cls-17{stroke:#7c9527;}.cls-18{fill:url(#Nueva_muestra_de_degradado_2);}.cls-19{fill:#32190c;}.cls-20,.cls-21{stroke-width:0.25px;}.cls-20{opacity:0.66;}.cls-21{opacity:0.83;}.cls-22{stroke:#000;stroke-width:40px;opacity:0.5;}</style><clipPath id="clip-path"><circle class="cls-1" cx="2048" cy="2052" r="2048"/></clipPath><linearGradient id="Degradado_sin_nombre_377" x1="1354.47" y1="1671.91" x2="1734.89" y2="1891.55" gradientUnits="userSpaceOnUse"><stop offset="0" stop-color="#564a3d"/><stop offset="0.29" stop-color="#53483b"/><stop offset="0.47" stop-color="#4b4136"/><stop offset="0.61" stop-color="#3d352c"/><stop offset="0.7" stop-color="#302a23"/></linearGradient><linearGradient id="Nueva_muestra_de_degradado_5" x1="1388.22" y1="1872.06" x2="1701.13" y2="1691.4" gradientUnits="userSpaceOnUse"><stop offset="0" stop-color="#313131"/><stop offset="1"/></linearGradient><linearGradient id="Degradado_sin_nombre_255" x1="1377.67" y1="1682.79" x2="1458.7" y2="1601.75" gradientUnits="userSpaceOnUse"><stop offset="0" stop-color="#fff"/><stop offset="0.35" stop-color="#fcfcfc"/><stop offset="0.58" stop-color="#f3f3f3"/><stop offset="0.77" stop-color="#e4e4e4"/><stop offset="0.95" stop-color="#cfcfcf"/><stop offset="1" stop-color="#c8c8c8"/></linearGradient><linearGradient id="Degradado_sin_nombre_255-2" x1="1547.7" y1="1990.6" x2="1656.25" y2="1882.05" xlink:href="#Degradado_sin_nombre_255"/><linearGradient id="Degradado_sin_nombre_378" x1="2360.99" y1="1680.92" x2="2741.41" y2="1900.56" xlink:href="#Degradado_sin_nombre_377"/><linearGradient id="Nueva_muestra_de_degradado_5-2" x1="2394.75" y1="1881.07" x2="2707.65" y2="1700.41" xlink:href="#Nueva_muestra_de_degradado_5"/><linearGradient id="Degradado_sin_nombre_255-3" x1="2433.93" y1="1691.79" x2="2514.96" y2="1610.76" xlink:href="#Degradado_sin_nombre_255"/><linearGradient id="Degradado_sin_nombre_255-4" x1="2603.95" y1="1999.61" x2="2712.5" y2="1891.06" xlink:href="#Degradado_sin_nombre_255"/><radialGradient id="Nueva_muestra_de_degradado_2" cx="2048.53" cy="3429.34" r="475.82" xlink:href="#Degradado_sin_nombre_255"/></defs><g id="Pera_estándar_avatar" data-name="Pera estándar avatar"><g class="cls-2"><rect id="Fondo" class="cls-3" y="4" width="4096" height="4096"/><g id="Rabillo"><polygon class="cls-4" points="2295.83 112 2642.45 112 2049.77 545.04 2043.94 549.28 2295.83 112"/><path class="cls-5" d="M2581.18,132,2108.42,477.42l199-345.42h273.79m122.55-40H2284.27L2014,561.19v34.59l47.57-34.59L2703.73,92Z"/></g><g id="Pera"><path class="cls-6" d="M2048,4020.5c-215.68,0-424.85-31.66-621.68-94.1a1814.41,1814.41,0,0,1-270.75-110.21c-84.23-42.68-163.41-91.67-235.33-145.61-71.75-53.82-136.86-113-193.51-175.88-57-63.31-106-130.93-145.48-201-81.86-145.16-123.37-299.24-123.37-457.94a901.22,901.22,0,0,1,39.29-262.63c25.42-83.47,63.25-165.08,112.45-242.57,48.48-76.35,108.24-149.12,177.63-216.29,69.11-66.89,148-128.48,234.53-183l19.72-12.43-6.14-22.5a1052.42,1052.42,0,0,1-36.94-276.74c0-141.71,27.75-279.16,82.47-408.54a1053.38,1053.38,0,0,1,558.57-558.58C1768.84,597.73,1906.29,570,2048,570s279.16,27.74,408.53,82.46A1053.36,1053.36,0,0,1,3015.11,1211c54.72,129.38,82.47,266.83,82.47,408.54a1052.42,1052.42,0,0,1-36.94,276.74l-6.14,22.5,19.72,12.43c86.51,54.57,165.42,116.16,234.53,183,69.39,67.17,129.15,139.94,177.63,216.29,49.2,77.49,87,159.1,112.45,242.57a901.22,901.22,0,0,1,39.29,262.63c0,158.7-41.51,312.78-123.37,457.94-39.51,70.05-88.46,137.67-145.48,201-56.65,62.89-121.76,122.06-193.51,175.88-71.92,53.94-151.1,102.93-235.33,145.61a1814.41,1814.41,0,0,1-270.75,110.21C2472.85,3988.84,2263.68,4020.5,2048,4020.5Z"/><path class="cls-5" d="M2048,601.49a1026.39,1026.39,0,0,1,205.25,20.68,1012.41,1012.41,0,0,1,363.92,153.15,1021.11,1021.11,0,0,1,368.93,448,1012.31,1012.31,0,0,1,59.3,191A1025.75,1025.75,0,0,1,3030.24,1888L3018,1933l39.44,24.88c84.68,53.41,161.87,113.64,229.42,179s125.8,136.28,172.94,210.53c47.68,75.09,84.32,154.12,108.91,234.87a865.58,865.58,0,0,1,7.21,482c-19.94,73.08-49.75,145.06-88.59,213.93-38.37,68.05-86,133.78-141.45,195.38-55.28,61.37-118.87,119.16-189,171.76-70.46,52.84-148.07,100.86-230.67,142.71a1781.56,1781.56,0,0,1-266,108.28,1962.74,1962.74,0,0,1-294.9,68.65,2110.7,2110.7,0,0,1-634.52,0,1962.74,1962.74,0,0,1-294.9-68.65,1781.56,1781.56,0,0,1-266-108.28c-82.6-41.85-160.21-89.87-230.67-142.71-70.13-52.6-133.72-110.39-189-171.76-55.49-61.6-103.08-127.33-141.45-195.38-38.84-68.87-68.65-140.85-88.59-213.93a865.58,865.58,0,0,1,7.21-482c24.59-80.75,61.23-159.78,108.91-234.87,47.14-74.25,105.33-145.09,172.94-210.53s144.74-125.63,229.42-179L1078,1933l-12.27-45A1017.35,1017.35,0,0,1,2048,601.49m0-63c-597.06,0-1081.08,484-1081.08,1081.08a1082.2,1082.2,0,0,0,38.05,285C651.25,2127.7,426.38,2462,426.38,2835.78c0,671.7,726,1216.22,1621.62,1216.22s1621.62-544.52,1621.62-1216.22c0-373.76-224.87-708.08-578.59-931.18a1082.2,1082.2,0,0,0,38-285c0-597.07-484-1081.08-1081.08-1081.08Z"/></g><path id="Ceja_izquierda" data-name="Ceja izquierda" class="cls-7" d="M1323.46,1224.1c-2.57-6.31,137.8-105,293.94-67.93s237.07,188.44,231.95,192.91c-4.8,4.2-87.38-123-239.95-159.25S1325.86,1230,1323.46,1224.1Z"/><path id="Esclera" class="cls-8" d="M1516.57,1349.3c149.26,0,270.27,181.5,270.27,405.4s-121,405.41-270.27,405.41S1246.3,1978.6,1246.3,1754.7,1367.3,1349.3,1516.57,1349.3Z"/><path id="Iris" class="cls-9" d="M1544.68,1479c101.5,0,183.78,135.52,183.78,302.7s-82.28,302.7-183.78,302.7-183.79-135.52-183.79-302.7S1443.17,1479,1544.68,1479Z"/><path id="Pupila" class="cls-10" d="M1544.68,1533.08c83.58,0,151.35,111.32,151.35,248.65s-67.77,248.65-151.35,248.65-151.36-111.33-151.36-248.65S1461.09,1533.08,1544.68,1533.08Z"/><path id="Reflejo_ojo_1" data-name="Reflejo ojo 1" class="cls-11" d="M1418.19,1585a57.3,57.3,0,1,1-57.3,57.3A57.31,57.31,0,0,1,1418.19,1585Z"/><path id="Reflejo_ojo_2" data-name="Reflejo ojo 2" class="cls-12" d="M1602,1859.57a76.76,76.76,0,1,1-76.75,76.75A76.76,76.76,0,0,1,1602,1859.57Z"/><path id="Ceja_derecha" data-name="Ceja derecha" class="cls-7" d="M2486.47,1198.84c-152.57,36.26-235.14,163.45-239.94,159.25-5.13-4.47,75.81-155.8,231.95-192.91s296.5,61.62,293.94,67.93C2770,1239,2639.05,1162.57,2486.47,1198.84Z"/><path id="Esclera-2" data-name="Esclera" class="cls-8" d="M2849.58,1763.71c0,223.9-121,405.41-270.27,405.41S2309,1987.61,2309,1763.71s121-405.4,270.27-405.4S2849.58,1539.81,2849.58,1763.71Z"/><path id="Iris-2" data-name="Iris" class="cls-13" d="M2735,1790.74c0,167.18-82.28,302.7-183.78,302.7s-183.78-135.52-183.78-302.7S2449.7,1488,2551.2,1488,2735,1623.56,2735,1790.74Z"/><path id="Pupila-2" data-name="Pupila" class="cls-14" d="M2702.55,1790.74c0,137.32-67.76,248.65-151.35,248.65s-151.35-111.33-151.35-248.65,67.76-248.65,151.35-248.65S2702.55,1653.41,2702.55,1790.74Z"/><path id="Reflejo_ojo_1-2" data-name="Reflejo ojo 1" class="cls-15" d="M2474.44,1594a57.3,57.3,0,1,1-57.29,57.3A57.29,57.29,0,0,1,2474.44,1594Z"/><path id="Reflejo_ojo_2-2" data-name="Reflejo ojo 2" class="cls-16" d="M2658.23,1868.58a76.76,76.76,0,1,1-76.76,76.75A76.75,76.75,0,0,1,2658.23,1868.58Z"/><path id="Moflete_izquierdo" data-name="Moflete izquierdo" class="cls-17" d="M1579.27,3035.05c-61.51-61.47-162.68-61.45-224.16,0s-61.52,162.73,0,224.25"/><path id="Moflete_derecho" data-name="Moflete derecho" class="cls-17" d="M2518.78,3034.78c61.52-61.45,162.67-61.43,224.13,0s61.53,162.72,0,224.25"/><g id="Boca"><path class="cls-18" d="M2057.05,3683.78c-53.84-.16-120.13-22.33-197-65.88-63.21-35.81-133.58-86.31-203.49-146-60.38-51.59-117.74-107.73-161.51-158.09-69.51-80-69.48-104-69.46-111.83,0-15.93,11.52-27,28-27,9.64,0,27.63,3.12,72.31,30.06,126.05,76,320.14,119.62,532.49,119.62,211.12,0,403.94-43.42,529.24-119.16,36.18-26.87,50.51-30.51,59.74-30.51,14,0,24.14,10.29,24.15,24.47,0,7.32-2.08,19.13-18.48,45.75-10.72,17.39-26.29,38.92-45,62.25-41.58,51.74-95.16,108.4-150.87,159.53-66.85,61.37-134.93,113-196.89,149.29-76.34,44.72-144.65,67.46-203,67.58Z"/><path class="cls-19" d="M1453.55,3192.9c11,0,31.41,8.42,63,27.48,134.66,81.21,338.21,122.2,541.78,122.2,202.28,0,404.59-40.48,539.3-122.2,25.58-19.06,41.67-27.47,49.68-27.47,60.07,0-333.51,472.33-590.22,472.87-238.45-.72-685.88-472.89-603.56-472.88m0-36c-15.87,0-26.2,6.53-32.07,12-9,8.34-13.88,20.06-13.9,33,0,15.84,7.13,33.87,23.23,58.47,12.17,18.61,29.21,40.55,50.64,65.2,44.34,51,102.37,107.82,163.41,160,94.31,80.58,273.26,215.82,412.14,216.24h.18c61.63-.13,133-23.7,212.12-70.05,63-36.93,132.18-89.34,200-151.56,56.36-51.73,110.6-109.09,152.73-161.51,19.48-24.25,35.07-45.81,46.33-64.09,14.85-24.1,21.18-40.61,21.16-55.21,0-24.2-18.14-42.45-42.15-42.45-17.34,0-37.62,9.74-69.77,33.55-122.59,73.81-311.69,116.12-519.21,116.12-209.17,0-399.87-42.66-523.19-117-37.94-22.88-62.35-32.64-81.61-32.65Z"/></g><path id="Reflejo_nariz_1_v2" data-name="Reflejo nariz 1 v2" class="cls-20" d="M1650.54,2381c-32,7.47-101,31.7-120.46,56.28-17.42,22,15.45,31.62,43.08,31.37,62.13-.55,147-47.7,155.73-79.14,2.37-8.55-.05-18.38-9.08-21.25-9.37-3-23.45,3.48-46.85,8.62C1664.92,2378.63,1659,2379,1650.54,2381Z"/><path id="Reflejo_nariz_2_v2" data-name="Reflejo nariz 2 v2" class="cls-21" d="M1686.62,2377.64c9.34,0,16.61,4.59,16.61,12,0,9.38-13.13,23.71-32.48,25.31-18.81,1.56-24.81-11.69-13.92-24C1665.16,2381.56,1678.09,2377.64,1686.62,2377.64Z"/><path id="Nariz_v2" data-name="Nariz v2" class="cls-22" d="M2038.71,1848.73s89.7,443.94-39.11,434.74-692.33,71.3-555.48,372.62,645.19,170.22,875.21,41.41,155.11-128.81,155.11-128.81"/><path d="M2048,20a2047.39,2047.39,0,0,1,409.54,41.28A2021.1,2021.1,0,0,1,3184.1,367a2037.87,2037.87,0,0,1,736.22,894,2021.71,2021.71,0,0,1,118.4,381.4,2052.17,2052.17,0,0,1,0,819.08A2021.1,2021.1,0,0,1,3733,3188.1a2037.87,2037.87,0,0,1-894,736.22,2021.71,2021.71,0,0,1-381.4,118.4,2052.17,2052.17,0,0,1-819.08,0A2021.1,2021.1,0,0,1,911.9,3737a2037.87,2037.87,0,0,1-736.22-894,2021.71,2021.71,0,0,1-118.4-381.4,2052.17,2052.17,0,0,1,0-819.08A2021.1,2021.1,0,0,1,363,915.9a2037.87,2037.87,0,0,1,894-736.22,2021.71,2021.71,0,0,1,381.4-118.4A2047.39,2047.39,0,0,1,2048,20m0-16C916.92,4,0,920.92,0,2052S916.92,4100,2048,4100s2048-916.92,2048-2048S3179.08,4,2048,4Z"/></g></g></svg>